:SAMPLES-PER-SECOND 30
:FULLY-SPECIFIED
:DEGREES
1811
root  4.971 38.8246 -8.83223 -22.3046 -78.0963 14.6546
RightUpLeg  -10.899 -7.7884 -9.68846
RightLeg  -0.266796 24.7064 -3.11714
RightFoot  -0.654953 -1.72149 18.2339
RightToes  7.56698e-010 0 -3.6325e-017
Spine  20.7964 -2.32776 -39.8978
Spine1  -11.1594 -13.5803 60.2662
HEad  -84.8495 23.7234 -23.9629
LeftShoulder1  -5.24105 11.1959 -58.5181
LeftArm  -17.8441 -2.51959 -19.7652
LeftForeArm  -9.34215 -32.1949 -7.59891
LeftHand  -0.0950048 8.45583 -1.75816
RightShoulder  -3.69965 -9.27185 55.121
RightArm  113.639 64.9859 -12.2515
RightForeArm  -122.122 33.2551 8.52947
RightHand  -0.26233 8.08762 -2.63794
LeftUpLeg  9.74938 6.69097 -5.60051
LeftLeg  14.1046 -6.83908 -2.26386
LeftFoot  -14.8772 0.386768 9.60636
LeftToes  -2.88401e-009 5.30678e-011 -1.08654e-010
1812
root  3.98962 38.678 -9.01231 -21.8264 -76.6102 13.9371
RightUpLeg  -10.0372 -7.62123 -9.49011
RightLeg  0.0722764 27.0758 -2.80215
RightFoot  -0.917206 -1.83598 19.9287
RightToes  7.56698e-010 0 -3.6325e-017
Spine  19.7649 -2.62753 -40.3589
Spine1  -9.62001 -14.5362 60.1433
HEad  -82.6852 23.876 -24.7736
LeftShoulder1  -5.24706 11.1885 -58.6312
LeftArm  -16.6077 -3.01003 -19.4229
LeftForeArm  -1.45684 -33.9112 -7.6423
LeftHand  -0.0784586 7.83877 -1.63583
RightShoulder  -3.83199 -9.4923 55.0058
RightArm  115.714 65.8885 -9.44352
RightForeArm  -121.078 33.5779 8.66099
RightHand  -0.227244 8.79663 -2.24727
LeftUpLeg  11.3901 6.92206 -4.8854
LeftLeg  14.6916 -8.58784 -2.33707
LeftFoot  -16.5299 0.516084 9.17688
LeftToes  -2.88401e-009 5.30678e-011 -1.08654e-010
1813
root  3.06814 38.6969 -9.14526 -19.3302 -75.0887 11.1118
RightUpLeg  -9.20745 -7.26161 -8.65859
RightLeg  2.08664 26.9117 -1.9661
RightFoot  4.36837 -2.24587 16.5158
RightToes  7.56698e-010 0 -3.6325e-017
Spine  19.7249 -2.99666 -39.9216
Spine1  -9.08652 -15.3124 60.1848
HEad  -78.614 24.2704 -25.7999
LeftShoulder1  -5.3109 11.3168 -58.3868
LeftArm  -14.9809 -1.94175 -19.7009
LeftForeArm  6.71304 -35.6088 -7.64584
LeftHand  -0.0542841 6.81751 -1.50693
RightShoulder  -3.78059 -9.40059 55.1129
RightArm  119.985 65.5876 -6.73751
RightForeArm  -122.356 34.0483 8.73403
RightHand  -0.280331 8.21414 -2.76462
LeftUpLeg  13.6936 6.4279 -3.99804
LeftLeg  13.5014 -9.86766 -1.67887
LeftFoot  -17.0448 0.520285 8.35413
LeftToes  -2.88401e-009 5.30678e-011 -1.08654e-010
1814
root  2.16174 38.8127 -9.21491 -15.1466 -73.5163 6.42151
RightUpLeg  -8.49721 -6.74169 -7.56901
RightLeg  5.00901 25.3758 -0.661702
RightFoot  7.16902 -1.80492 11.2366
RightToes  7.56698e-010 0 -3.6325e-017
Spine  19.623 -3.63492 -38.3331
Spine1  -8.03128 -16.3765 59.4008
HEad  -74.9474 24.8855 -27.1297
LeftShoulder1  -5.32817 11.3031 -58.656
LeftArm  -12.937 -0.834656 -19.5426
LeftForeArm  11.8935 -36.6723 -7.63521
LeftHand  -0.0470006 6.49106 -1.09409
RightShoulder  -3.53243 -8.98242 55.3916
RightArm  124.076 64.5365 -3.83616
RightForeArm  -123.728 34.1897 8.71282
RightHand  -0.230814 8.48749 -2.30886
LeftUpLeg  15.9963 4.95115 -2.97301
LeftLeg  12.1622 -10.2044 -0.500074
LeftFoot  -16.8245 0.452802 7.34872
LeftToes  -2.88401e-009 5.30678e-011 -1.08654e-010
1815
root  1.24956 38.9106 -9.28326 -10.5847 -72.0783 1.61859
RightUpLeg  -7.91264 -5.03096 -6.44908
RightLeg  7.89229 22.0262 0.553821
RightFoot  5.63421 -1.24394 8.59092
RightToes  7.56698e-010 0 -3.6325e-017
Spine  19.4715 -4.1208 -36.0219
Spine1  -7.77771 -16.4507 58.1119
HEad  -70.781 25.3228 -28.2618
LeftShoulder1  -5.32057 11.1892 -59.3673
LeftArm  -10.9956 0.697575 -19.6723
LeftForeArm  14.0828 -36.3869 -7.42061
LeftHand  -0.046519 6.58359 -0.913224
RightShoulder  -4.05762 -9.86879 54.8336
RightArm  129.902 64.0611 2.88025
RightForeArm  -123.577 34.5537 8.82051
RightHand  -0.287693 8.32651 -2.80972
LeftUpLeg  16.664 2.76105 -1.71624
LeftLeg  13.3558 -9.52862 -0.154025
LeftFoot  -16.6858 0.368369 5.71141
LeftToes  -2.88401e-009 5.30678e-011 -1.08654e-010
1816
root  0.363959 39.0554 -9.36633 -9.1235 -70.6416 0.337708
RightUpLeg  -7.03922 -5.0105 -6.16213
RightLeg  9.18488 20.4409 1.24034
RightFoot  3.86193 -1.01715 7.8129
RightToes  7.56698e-010 0 -3.6325e-017
Spine  18.9178 -4.53235 -34.9894
Spine1  -7.2979 -16.6929 57.4046
HEad  -66.5605 26.371 -29.4308
LeftShoulder1  -5.38624 11.3112 -59.1832
LeftArm  -9.04476 3.54897 -21.4918
LeftForeArm  12.2999 -34.948 -7.12951
LeftHand  -0.0504182 7.1047 -0.739928
RightShoulder  -4.60155 -10.8018 54.2229
RightArm  136.484 64.0721 9.96235
RightForeArm  -122.409 35.5376 9.14653
RightHand  -0.267841 8.15161 -2.66791
LeftUpLeg  16.5795 -0.294138 -1.26768
LeftLeg  15.1142 -8.36446 -0.854163
LeftFoot  -15.6135 0.2149 3.20776
LeftToes  -2.88401e-009 5.30678e-011 -1.08654e-010
